<svg width="20" height="20" viewBox="0 0 20 20" fill="none" xmlns="http://www.w3.org/2000/svg">
<path d="M9.99839 2.0448e-09C8.20388 -3.62855e-05 6.44243 0.482904 4.89886 1.39815C3.3553 2.3134 2.08651 3.62721 1.22562 5.20174C0.364741 6.77627 -0.056505 8.55348 0.0060845 10.3469C0.068674 12.1403 0.612792 13.8838 1.58135 15.3945L0.00256337 19.9924L4.60047 18.4113C5.90759 19.251 7.39242 19.7744 8.93713 19.9401C10.4818 20.1058 12.0439 19.9092 13.4994 19.3659C14.9549 18.8226 16.2637 17.9475 17.322 16.8101C18.3803 15.6728 19.1589 14.3044 19.596 12.8136C20.0332 11.3228 20.1169 9.7506 19.8405 8.22181C19.564 6.69302 18.9351 5.24971 18.0035 4.0064C17.072 2.76309 15.8635 1.75402 14.4739 1.05925C13.0843 0.364487 11.552 0.00315572 9.99839 0.00393321V2.0448e-09ZM15.4931 15.4913L12.9695 14.626C11.8287 15.3593 10.457 15.645 9.11826 15.4281C7.77951 15.2112 6.56819 14.5071 5.71718 13.4512C4.86617 12.3952 4.43555 11.0619 4.50812 9.70767C4.58068 8.35341 5.15131 7.07378 6.11029 6.1148C7.06926 5.15583 8.34889 4.5852 9.70315 4.51263C11.0574 4.44007 12.3907 4.87069 13.4466 5.7217C14.5026 6.5727 15.2067 7.78403 15.4236 9.12278C15.6404 10.4615 15.3548 11.8332 14.6215 12.974L15.4931 15.4913Z" fill="white"/>
</svg>
