<svg width="42" height="42" viewBox="0 0 42 42" fill="none" xmlns="http://www.w3.org/2000/svg">
<g clip-path="url(#clip0_8_356)">
<path d="M21 42C32.5984 42 42 32.5984 42 21C42 9.40165 32.5984 0 21 0C9.40164 0 9.07246e-07 9.40165 9.07246e-07 21C9.07246e-07 32.5984 9.40164 42 21 42ZM21 40.8947C10.0125 40.8947 1.10527 31.9875 1.10527 21C1.10527 10.0125 10.0125 1.10526 21 1.10526C31.9875 1.10526 40.8947 10.0125 40.8947 21C40.8947 31.9875 31.9875 40.8947 21 40.8947Z" fill="black"/>
<path d="M12.9394 20.4474H41.4473V21.5526H12.9394L23.4394 32.0526H21.8762L10.8236 21L21.8762 9.94739H23.4394L12.9394 20.4474Z" fill="black"/>
</g>
<defs>
<clipPath id="clip0_8_356">
<rect width="42" height="42" fill="white" transform="matrix(-1 0 0 1 42 0)"/>
</clipPath>
</defs>
</svg>
