<svg width="50" height="50" viewBox="0 0 50 50" fill="none" xmlns="http://www.w3.org/2000/svg">
<g clip-path="url(#clip0_2_63)">
<path d="M25 50C11.1924 50 0 38.8076 0 25C0 11.1924 11.1924 0 25 0C38.8076 0 50 11.1924 50 25C50 38.8076 38.8076 50 25 50ZM25 48.6842C38.0804 48.6842 48.6842 38.0804 48.6842 25C48.6842 11.9196 38.0804 1.31579 25 1.31579C11.9196 1.31579 1.31579 11.9196 1.31579 25C1.31579 38.0804 11.9196 48.6842 25 48.6842Z" fill="#E5282B"/>
<path d="M34.5959 24.342H0.657959V25.6578H34.5959L22.0959 38.1578H23.9568L37.1147 24.9999L23.9568 11.842H22.0959L34.5959 24.342Z" fill="#E5282B"/>
</g>
<defs>
<clipPath id="clip0_2_63">
<rect width="50" height="50" fill="white"/>
</clipPath>
</defs>
</svg>
