<svg width="42" height="42" viewBox="0 0 42 42" fill="none" xmlns="http://www.w3.org/2000/svg">
<g clip-path="url(#clip0_8_353)">
<path d="M21 42C9.40165 42 0 32.5984 0 21C0 9.40165 9.40165 0 21 0C32.5984 0 42 9.40165 42 21C42 32.5984 32.5984 42 21 42ZM21 40.8947C31.9875 40.8947 40.8947 31.9875 40.8947 21C40.8947 10.0125 31.9875 1.10526 21 1.10526C10.0125 1.10526 1.10526 10.0125 1.10526 21C1.10526 31.9875 10.0125 40.8947 21 40.8947Z" fill="black"/>
<path d="M29.0606 20.4474H0.552734V21.5526H29.0606L18.5606 32.0526H20.1238L31.1764 21L20.1238 9.94739H18.5606L29.0606 20.4474Z" fill="black"/>
</g>
<defs>
<clipPath id="clip0_8_353">
<rect width="42" height="42" fill="white"/>
</clipPath>
</defs>
</svg>
