<svg width="114" height="114" viewBox="0 0 114 114" fill="none" xmlns="http://www.w3.org/2000/svg">
<g clip-path="url(#clip0_2_245)">
<path d="M57 114C88.4812 114 114 88.4812 114 57C114 25.5188 88.4812 0 57 0C25.5188 0 1.01634e-05 25.5188 1.01634e-05 57C1.01634e-05 88.4812 25.5188 114 57 114ZM57 111C27.1768 111 3.00001 86.8232 3.00001 57C3.00001 27.1768 27.1768 3 57 3C86.8232 3 111 27.1768 111 57C111 86.8232 86.8232 111 57 111Z" fill="white"/>
<path d="M35.1214 55.5H112.5V58.5H35.1214L63.6214 87H59.3786L29.3786 57L59.3786 27H63.6214L35.1214 55.5Z" fill="white"/>
</g>
<defs>
<clipPath id="clip0_2_245">
<rect width="114" height="114" fill="white" transform="matrix(-1 0 0 1 114 0)"/>
</clipPath>
</defs>
</svg>
