<svg width="114" height="114" viewBox="0 0 114 114" fill="none" xmlns="http://www.w3.org/2000/svg">
<g clip-path="url(#clip0_2_49)">
<path d="M57 114C25.5188 114 0 88.4812 0 57C0 25.5188 25.5188 0 57 0C88.4812 0 114 25.5188 114 57C114 88.4812 88.4812 114 57 114ZM57 111C86.8232 111 111 86.8232 111 57C111 27.1768 86.8232 3 57 3C27.1768 3 3 27.1768 3 57C3 86.8232 27.1768 111 57 111Z" fill="black"/>
<path d="M78.8786 55.5H1.5V58.5H78.8786L50.3786 87H54.6214L84.6214 57L54.6214 27H50.3786L78.8786 55.5Z" fill="black"/>
</g>
<defs>
<clipPath id="clip0_2_49">
<rect width="114" height="114" fill="white"/>
</clipPath>
</defs>
</svg>
