<svg width="50" height="50" viewBox="0 0 50 50" fill="none"
    xmlns="http://www.w3.org/2000/svg">
    <g clip-path="url(#clip0_122_634)">
        <path d="M25 50C11.1924 50 0 38.8076 0 25C0 11.1924 11.1924 0 25 0C38.8076 0 50 11.1924 50 25C50 38.8076 38.8076 50 25 50ZM25 48.6842C38.0804 48.6842 48.6842 38.0804 48.6842 25C48.6842 11.9196 38.0804 1.31579 25 1.31579C11.9196 1.31579 1.31579 11.9196 1.31579 25C1.31579 38.0804 11.9196 48.6842 25 48.6842Z" fill="#E5292B"/>
        <path d="M25 29C27.2091 29 29 27.2091 29 25C29 22.7909 27.2091 21 25 21C22.7909 21 21 22.7909 21 25C21 27.2091 22.7909 29 25 29Z" stroke="#E5292B" stroke-linecap="round" stroke-linejoin="round"/>
        <path d="M29 21.0001V26.0001C29 26.7958 29.3161 27.5588 29.8787 28.1214C30.4413 28.684 31.2044 29.0001 32 29.0001C32.7957 29.0001 33.5587 28.684 34.1213 28.1214C34.6839 27.5588 35 26.7958 35 26.0001V25.0001C34.9999 22.7431 34.2362 20.5526 32.8333 18.7846C31.4303 17.0167 29.4706 15.7753 27.2726 15.2624C25.0747 14.7495 22.7679 14.9952 20.7274 15.9595C18.6868 16.9238 17.0324 18.5501 16.0333 20.5738C15.0341 22.5976 14.749 24.8998 15.2242 27.1062C15.6994 29.3126 16.907 31.2933 18.6506 32.7264C20.3943 34.1594 22.5714 34.9605 24.8281 34.9993C27.0847 35.0381 29.2881 34.3124 31.08 32.9401" stroke="#E5292B" stroke-linecap="round" stroke-linejoin="round"/>
    </g>
    <defs>
        <clipPath id="clip0_122_634">
            <rect width="50" height="50" fill="white"/>
        </clipPath>
    </defs>
</svg>
