<svg width="26" height="26" fill="none" xmlns="http://www.w3.org/2000/svg">
    <g clip-path="url(#a)">
        <path d="M19.507 0h-3.382c-3.788 0-6.25 2.516-6.25 6.412v2.95H6.493a.543.543 0 0 0-.54.54v4.275c0 .298.243.541.54.541h3.382v10.795c0 .298.244.541.541.541h4.437a.543.543 0 0 0 .541-.541V14.691h3.978a.543.543 0 0 0 .54-.541V9.875a.534.534 0 0 0-.162-.379.534.534 0 0 0-.378-.162h-4.005V6.845c0-1.19.298-1.813 1.84-1.813h2.273a.543.543 0 0 0 .54-.54V.541c0-.299-.216-.542-.513-.542Z" fill="#E5292B" />
    </g>
    <defs>
        <clipPath id="a">
            <path fill="#fff" d="M0 0h26v26H0z" />
        </clipPath>
    </defs>
</svg>