<svg width="50" height="50" viewBox="0 0 50 50" fill="none"
    xmlns="http://www.w3.org/2000/svg">
    <path d="M25 50C11.1924 50 0 38.8076 0 25C0 11.1924 11.1924 0 25 0C38.8076 0 50 11.1924 50 25C50 38.8076 38.8076 50 25 50ZM25 48.6842C38.0804 48.6842 48.6842 38.0804 48.6842 25C48.6842 11.9196 38.0804 1.31579 25 1.31579C11.9196 1.31579 1.31579 11.9196 1.31579 25C1.31579 38.0804 11.9196 48.6842 25 48.6842Z" fill="#E5292B"/>
    <path d="M31 15H28C26.6739 15 25.4021 15.5268 24.4645 16.4645C23.5268 17.4021 23 18.6739 23 20V23H20V27H23V35H27V27H30L31 23H27V20C27 19.7348 27.1054 19.4804 27.2929 19.2929C27.4804 19.1054 27.7348 19 28 19H31V15Z" stroke="#E5292B" stroke-linecap="round" stroke-linejoin="round"/>
</svg>
