<svg width="114" height="114" viewBox="0 0 114 114" fill="none" xmlns="http://www.w3.org/2000/svg">
<path d="M57.0056 0.61145C25.8581 0.61145 0.60498 26.1304 0.60498 57.6058C0.60498 86.0488 21.2271 109.624 48.1949 113.916V74.0845H33.8677V57.6058H48.1949V45.0487C48.1949 30.7531 56.6164 22.87 69.4939 22.87C75.6648 22.87 82.1289 23.9815 82.1289 23.9815V37.9978H74.9992C68.0048 37.9978 65.8162 42.3982 65.8162 46.9069V57.5944H81.4464L78.9476 74.0731H65.8162V113.905C92.7841 109.635 113.406 86.0545 113.406 57.6058C113.406 26.1304 88.1531 0.61145 57.0056 0.61145V0.61145Z" fill="white"/>
</svg>
