<svg width="27" height="27" viewBox="0 0 27 27" fill="none" xmlns="http://www.w3.org/2000/svg">
<path d="M13 2.34609C16.4734 2.34609 16.8797 2.35625 18.2508 2.41719C19.5203 2.47812 20.2109 2.69141 20.668 2.86406C21.2773 3.09766 21.7039 3.38203 22.1609 3.83906C22.618 4.29609 22.9023 4.72266 23.1359 5.33203C23.3188 5.78906 23.5219 6.47969 23.5828 7.74922C23.6437 9.12031 23.6539 9.52656 23.6539 13C23.6539 16.4734 23.6437 16.8797 23.5828 18.2508C23.5219 19.5203 23.3086 20.2109 23.1359 20.668C22.9023 21.2773 22.618 21.7039 22.1609 22.1609C21.7039 22.618 21.2773 22.9023 20.668 23.1359C20.2109 23.3188 19.5203 23.5219 18.2508 23.5828C16.8797 23.6437 16.4734 23.6539 13 23.6539C9.52656 23.6539 9.12031 23.6437 7.74922 23.5828C6.47969 23.5219 5.78906 23.3086 5.33203 23.1359C4.72266 22.9023 4.29609 22.618 3.83906 22.1609C3.38203 21.7039 3.09766 21.2773 2.86406 20.668C2.68125 20.2109 2.47812 19.5203 2.41719 18.2508C2.35625 16.8797 2.34609 16.4734 2.34609 13C2.34609 9.52656 2.35625 9.12031 2.41719 7.74922C2.47812 6.47969 2.69141 5.78906 2.86406 5.33203C3.09766 4.72266 3.38203 4.29609 3.83906 3.83906C4.29609 3.38203 4.72266 3.09766 5.33203 2.86406C5.78906 2.68125 6.47969 2.47812 7.74922 2.41719C9.12031 2.35625 9.52656 2.34609 13 2.34609ZM13 0C9.46563 0 9.02891 0.0101563 7.6375 0.08125C6.25625 0.142188 5.31172 0.365625 4.48906 0.680469C3.63594 1.01562 2.90469 1.45234 2.18359 2.18359C1.4625 2.91484 1.01562 3.62578 0.680469 4.48906C0.355469 5.31172 0.142188 6.25625 0.08125 7.64766C0.0101563 9.02891 0 9.46563 0 13C0 16.5344 0.0101563 16.9711 0.08125 18.3625C0.142188 19.7438 0.365625 20.6883 0.680469 21.5211C1.01562 22.3742 1.45234 23.1055 2.18359 23.8266C2.90469 24.5477 3.63594 24.9945 4.48906 25.3297C5.31172 25.6547 6.25625 25.868 7.64766 25.9289C9.03906 25.9898 9.47578 26.0102 13.0102 26.0102C16.5445 26.0102 16.9812 26 18.3727 25.9289C19.7539 25.868 20.6984 25.6445 21.5312 25.3297C22.3844 24.9945 23.1156 24.5578 23.8367 23.8266C24.5578 23.1055 25.0047 22.3742 25.3398 21.5211C25.6648 20.6984 25.8781 19.7539 25.9391 18.3625C26 16.9711 26.0203 16.5344 26.0203 13C26.0203 9.46563 26.0102 9.02891 25.9391 7.6375C25.8781 6.25625 25.6547 5.31172 25.3398 4.47891C25.0047 3.62578 24.568 2.89453 23.8367 2.17344C23.1055 1.45234 22.3742 1.01562 21.5109 0.680469C20.6883 0.355469 19.7437 0.142188 18.3523 0.08125C16.9711 0.0101563 16.5344 0 13 0ZM13 6.32734C9.31328 6.32734 6.32734 9.31328 6.32734 13C6.32734 16.6867 9.31328 19.6727 13 19.6727C16.6867 19.6727 19.6727 16.6867 19.6727 13C19.6727 9.31328 16.6867 6.32734 13 6.32734ZM13 17.3367C10.6031 17.3367 8.66328 15.3969 8.66328 13C8.66328 10.6031 10.6031 8.66328 13 8.66328C15.3969 8.66328 17.3367 10.6031 17.3367 13C17.3367 15.3969 15.3969 17.3367 13 17.3367ZM21.5008 6.06328C21.5008 6.92656 20.8 7.62734 19.9367 7.62734C19.0734 7.62734 18.3828 6.92656 18.3828 6.06328C18.3828 5.2 19.0836 4.49922 19.9469 4.49922C20.8102 4.49922 21.5008 5.2 21.5008 6.06328Z" fill="#E5292B"/>
</svg>
