<svg viewBox="0 0 860 223" fill="none"
    xmlns="http://www.w3.org/2000/svg">
    <path d="M0 4.05h33.866v90.895L76.968 4.05h33.866L70.502 83.236l40.947 136.495H76.044l-28.632-96.132-13.546 27.423v68.709H0V4.051ZM135.483 220.964c-6.158 0-11.392-.411-15.702-1.233V188.92c3.284.821 6.979 1.232 11.084 1.232 6.773 0 11.801-1.643 15.085-4.93 3.284-3.492 4.926-8.73 4.926-15.714V4.051h33.866v164.533c0 17.665-4.105 30.812-12.315 39.439-8.004 8.627-20.319 12.941-36.944 12.941ZM256.984 4.05h111.141v30.812H309.63v57.002h46.488v30.811H309.63v66.245h58.495v30.811h-92.361v-42.212h-33.25l-10.776 42.212h-32.326l57.572-215.68Zm18.78 144.199V45.646h-.616L249.903 148.25h25.861ZM387.545 4.05h50.183c17.446 0 30.171 4.11 38.176 12.325 8.005 8.011 12.007 20.439 12.007 37.282v13.25c0 22.389-7.389 36.562-22.167 42.519v.616c8.21 2.465 13.957 7.498 17.241 15.098 3.489 7.6 5.234 17.768 5.234 30.503v37.898c0 6.163.205 11.195.616 15.098.41 3.697 1.436 7.395 3.078 11.092h-34.481c-1.232-3.492-2.053-6.778-2.463-9.86-.411-3.081-.616-8.627-.616-16.638v-39.438c0-9.86-1.642-16.741-4.926-20.644-3.079-3.903-8.518-5.854-16.317-5.854h-11.699v92.434h-33.866V4.051Zm46.181 92.435c6.773 0 11.801-1.746 15.085-5.238 3.49-3.492 5.234-9.346 5.234-17.562V57.047c0-7.806-1.436-13.455-4.31-16.947-2.668-3.492-6.978-5.238-12.931-5.238h-15.393v61.623h12.315ZM511.716 4.05h33.866v87.814h36.328V4.05h33.866v215.68H581.91v-97.056h-36.328v97.056h-33.866V4.051ZM690.257 222.812c-16.42 0-28.94-4.621-37.56-13.865-8.621-9.449-12.931-22.903-12.931-40.363V4.051h33.866v166.998c0 7.395 1.437 12.735 4.31 16.022 3.079 3.287 7.389 4.93 12.931 4.93 5.542 0 9.749-1.643 12.623-4.93 3.078-3.287 4.618-8.627 4.618-16.022V4.051h32.634v164.533c0 17.46-4.31 30.914-12.931 40.363-8.62 9.244-21.14 13.865-37.56 13.865ZM808.893 222.812c-16.419 0-28.837-4.621-37.252-13.865-8.415-9.449-12.623-22.903-12.623-40.363V156.26h32.019v14.789c0 13.968 5.849 20.952 17.549 20.952 5.746 0 10.057-1.643 12.93-4.93 3.079-3.492 4.618-9.038 4.618-16.638 0-9.038-2.052-16.947-6.157-23.725-4.105-6.984-11.699-15.303-22.783-24.957-13.957-12.325-23.706-23.417-29.247-33.277-5.542-10.065-8.313-21.362-8.313-33.892 0-17.05 4.31-30.196 12.931-39.439C781.185 5.694 793.705.97 810.125.97c16.214 0 28.427 4.724 36.637 14.173 8.415 9.243 12.622 22.595 12.622 40.055v8.935h-32.018V53.041c0-7.395-1.437-12.735-4.311-16.022-2.873-3.492-7.081-5.238-12.622-5.238-11.289 0-16.933 6.881-16.933 20.644 0 7.805 2.052 15.097 6.157 21.876 4.31 6.778 12.007 14.995 23.091 24.65 14.162 12.324 23.911 23.519 29.247 33.584C857.332 142.6 860 154.411 860 167.968c0 17.665-4.413 31.222-13.238 40.671-8.621 9.449-21.244 14.173-37.869 14.173Z" fill="#E5282B"/>
</svg>