<svg width="50" height="50" viewBox="0 0 50 50" fill="none"
    xmlns="http://www.w3.org/2000/svg">
    <path d="M25 50C11.1924 50 0 38.8076 0 25C0 11.1924 11.1924 0 25 0C38.8076 0 50 11.1924 50 25C50 38.8076 38.8076 50 25 50ZM25 48.6842C38.0804 48.6842 48.6842 38.0804 48.6842 25C48.6842 11.9196 38.0804 1.31579 25 1.31579C11.9196 1.31579 1.31579 11.9196 1.31579 25C1.31579 38.0804 11.9196 48.6842 25 48.6842Z" fill="#E5292B"/>
    <path d="M30 21C31.5913 21 33.1174 21.6321 34.2426 22.7574C35.3679 23.8826 36 25.4087 36 27V34H32V27C32 26.4696 31.7893 25.9609 31.4142 25.5858C31.0391 25.2107 30.5304 25 30 25C29.4696 25 28.9609 25.2107 28.5858 25.5858C28.2107 25.9609 28 26.4696 28 27V34H24V27C24 25.4087 24.6321 23.8826 25.7574 22.7574C26.8826 21.6321 28.4087 21 30 21V21Z" stroke="#E5292B" stroke-linecap="round" stroke-linejoin="round"/>
    <path d="M20 22H16V34H20V22Z" stroke="#E5292B" stroke-linecap="round" stroke-linejoin="round"/>
    <path d="M18 19C19.1046 19 20 18.1046 20 17C20 15.8954 19.1046 15 18 15C16.8954 15 16 15.8954 16 17C16 18.1046 16.8954 19 18 19Z" stroke="#E5292B" stroke-linecap="round" stroke-linejoin="round"/>
</svg>
