<svg width="26" height="26" viewBox="0 0 26 26" fill="none"
    xmlns="http://www.w3.org/2000/svg">
    <path d="M6.05553 8.36182H0.830365C0.595527 8.36182 0.411011 8.54633 0.411011 8.78117V25.547C0.411011 25.7818 0.595527 25.9663 0.830365 25.9663H6.04714C6.28198 25.9663 6.46649 25.7818 6.46649 25.547V8.78117C6.47488 8.55472 6.28198 8.36182 6.05553 8.36182Z" fill="#E5292B"/>
    <path d="M3.4471 0.0251465C1.54323 0.0251465 0 1.56837 0 3.47225C0 5.36773 1.54323 6.91096 3.4471 6.91096C5.34258 6.91096 6.88581 5.36773 6.88581 3.47225C6.88581 1.56837 5.34258 0.0251465 3.4471 0.0251465Z" fill="#E5292B"/>
    <path d="M19.3323 7.95093C17.2355 7.95093 15.6839 8.84835 14.7445 9.87996V8.78964C14.7445 8.5548 14.56 8.37028 14.3252 8.37028H9.32646C9.09162 8.37028 8.9071 8.5548 8.9071 8.78964V25.5554C8.9071 25.7903 9.09162 25.9748 9.32646 25.9748H14.5348C14.7697 25.9748 14.9542 25.7903 14.9542 25.5554V17.2606C14.9542 14.4677 15.7174 13.3774 17.6632 13.3774C19.7852 13.3774 19.9529 15.1219 19.9529 17.4032V25.5554C19.9529 25.7903 20.1374 25.9748 20.3723 25.9748H25.5807C25.8155 25.9748 26 25.7903 26 25.5554V16.3548C26 12.1948 25.2032 7.95093 19.3323 7.95093Z" fill="#E5292B"/>
</svg>
