<svg width="219" height="21" viewBox="0 0 219 21" fill="none" xmlns="http://www.w3.org/2000/svg">
<path d="M9.6313 0.816622C11.3712 0.816622 12.8822 1.10966 14.1643 1.69574C15.4463 2.26351 16.4353 3.08768 17.1313 4.16827C17.8273 5.23054 18.1753 6.48512 18.1753 7.93201C18.1753 9.37889 17.8273 10.6335 17.1313 11.6957C16.4353 12.758 15.4463 13.5822 14.1643 14.1683C12.8822 14.736 11.3712 15.0199 9.6313 15.0199H6.27965V20.0474H0.840088V0.816622H9.6313ZM9.30163 10.7342C10.4188 10.7342 11.2613 10.4961 11.8291 10.0199C12.3969 9.52541 12.6807 8.82944 12.6807 7.93201C12.6807 7.03457 12.3969 6.3386 11.8291 5.84409C11.2613 5.34959 10.4188 5.10234 9.30163 5.10234H6.27965V10.7342H9.30163Z" fill="#333333"/>
<path d="M20.8274 0.816622H26.267V15.7342H35.4428V20.0474H20.8274V0.816622Z" fill="#333333"/>
<path d="M50.6946 16.3111H42.5627L41.0517 20.0474H35.5023L43.9913 0.816622H49.3484L57.8649 20.0474H52.2056L50.6946 16.3111ZM49.1012 12.3001L46.6286 6.14629L44.1561 12.3001H49.1012Z" fill="#333333"/>
<path d="M68.7266 20.432C66.712 20.432 64.8988 20.0108 63.2871 19.1683C61.6937 18.3075 60.4391 17.117 59.5233 15.5968C58.6076 14.0767 58.1497 12.3551 58.1497 10.432C58.1497 8.50893 58.6076 6.78732 59.5233 5.26717C60.4391 3.74702 61.6937 2.56571 63.2871 1.72322C64.8988 0.86241 66.712 0.432007 68.7266 0.432007C70.4849 0.432007 72.0691 0.743362 73.4794 1.36607C74.8896 1.98878 76.0618 2.88622 76.9959 4.05838L73.5343 7.19025C72.2889 5.68842 70.7779 4.9375 69.0014 4.9375C67.9574 4.9375 67.0233 5.16644 66.1992 5.62431C65.3933 6.08219 64.7614 6.73237 64.3036 7.57486C63.864 8.39904 63.6442 9.35142 63.6442 10.432C63.6442 11.5126 63.864 12.4741 64.3036 13.3166C64.7614 14.1408 65.3933 14.7818 66.1992 15.2397C67.0233 15.6976 67.9574 15.9265 69.0014 15.9265C70.7779 15.9265 72.2889 15.1756 73.5343 13.6738L76.9959 16.8056C76.0618 17.9778 74.8896 18.8752 73.4794 19.4979C72.0691 20.1206 70.4849 20.432 68.7266 20.432Z" fill="#333333"/>
<path d="M94.8607 15.8441V20.0474H79.4212V0.816622H94.5036V5.01992H84.8058V8.26168H93.3497V12.3276H84.8058V15.8441H94.8607Z" fill="#333333"/>
<path d="M116.176 0.816622V20.0474H110.736V12.5474H103.319V20.0474H97.8793V0.816622H103.319V8.0419H110.736V0.816622H116.176Z" fill="#333333"/>
<path d="M129.711 20.432C127.678 20.432 125.846 20.0016 124.216 19.1408C122.604 18.28 121.332 17.0895 120.398 15.5694C119.482 14.0492 119.024 12.3368 119.024 10.432C119.024 8.52724 119.482 6.81479 120.398 5.29464C121.332 3.7745 122.604 2.58402 124.216 1.72322C125.846 0.86241 127.678 0.432007 129.711 0.432007C131.744 0.432007 133.566 0.86241 135.178 1.72322C136.808 2.58402 138.081 3.7745 138.996 5.29464C139.93 6.81479 140.398 8.52724 140.398 10.432C140.398 12.3368 139.93 14.0492 138.996 15.5694C138.081 17.0895 136.808 18.28 135.178 19.1408C133.566 20.0016 131.744 20.432 129.711 20.432ZM129.711 15.9265C130.681 15.9265 131.561 15.6976 132.348 15.2397C133.136 14.7818 133.758 14.1408 134.216 13.3166C134.674 12.4741 134.903 11.5126 134.903 10.432C134.903 9.35142 134.674 8.39904 134.216 7.57486C133.758 6.73237 133.136 6.08219 132.348 5.62431C131.561 5.16644 130.681 4.9375 129.711 4.9375C128.74 4.9375 127.861 5.16644 127.073 5.62431C126.286 6.08219 125.663 6.73237 125.205 7.57486C124.747 8.39904 124.518 9.35142 124.518 10.432C124.518 11.5126 124.747 12.4741 125.205 13.3166C125.663 14.1408 126.286 14.7818 127.073 15.2397C127.861 15.6976 128.74 15.9265 129.711 15.9265Z" fill="#333333"/>
<path d="M143.246 0.816622H148.686V15.7342H157.862V20.0474H143.246V0.816622Z" fill="#333333"/>
<path d="M160.014 0.816622H169.108C171.214 0.816622 173.082 1.2104 174.712 1.99794C176.342 2.78549 177.606 3.9027 178.503 5.34959C179.401 6.79648 179.85 8.49061 179.85 10.432C179.85 12.3734 179.401 14.0675 178.503 15.5144C177.606 16.9613 176.342 18.0785 174.712 18.8661C173.082 19.6536 171.214 20.0474 169.108 20.0474H160.014V0.816622ZM168.888 15.7067C170.536 15.7067 171.855 15.2397 172.844 14.3056C173.851 13.3716 174.355 12.0804 174.355 10.432C174.355 8.78365 173.851 7.49245 172.844 6.55838C171.855 5.62431 170.536 5.15728 168.888 5.15728H165.454V15.7067H168.888Z" fill="#333333"/>
<path d="M198.151 15.8441V20.0474H182.711V0.816622H197.794V5.01992H188.096V8.26168H196.64V12.3276H188.096V15.8441H198.151Z" fill="#333333"/>
<path d="M209.576 14.9375H206.609V20.0474H201.17V0.816622H209.961C211.701 0.816622 213.212 1.10966 214.494 1.69574C215.776 2.26351 216.765 3.08768 217.461 4.16827C218.157 5.23054 218.505 6.48512 218.505 7.93201C218.505 9.32395 218.175 10.5419 217.516 11.5859C216.875 12.6115 215.95 13.4174 214.741 14.0034L218.889 20.0474H213.065L209.576 14.9375ZM213.01 7.93201C213.01 7.03457 212.726 6.3386 212.159 5.84409C211.591 5.34959 210.748 5.10234 209.631 5.10234H206.609V10.7342H209.631C210.748 10.7342 211.591 10.4961 212.159 10.0199C212.726 9.52541 213.01 8.82944 213.01 7.93201Z" fill="#333333"/>
</svg>
