<svg width="187" height="28" viewBox="0 0 187 28" fill="none" xmlns="http://www.w3.org/2000/svg">
<path d="M0 0H6.37824L9.22205 20.04H9.3033L12.1471 0H18.5253V28H14.3003V6.8H14.219L10.969 28H7.23138L3.98132 6.8H3.90007V28H0V0Z" fill="#E5282B"/>
<path d="M25.3133 0H31.3666L35.9979 28H31.5291L30.7166 22.44V22.52H25.6383L24.8258 28H20.682L25.3133 0ZM30.1884 18.72L28.1978 4.88H28.1165L26.1665 18.72H30.1884Z" fill="#E5282B"/>
<path d="M38.166 0H42.6348V24H49.9881V28H38.166V0Z" fill="#E5282B"/>
<path d="M52.1311 0H64.3188V4H56.5999V11.4H62.7344V15.4H56.5999V24H64.3188V28H52.1311V0Z" fill="#E5282B"/>
<path d="M66.8897 0H73.5117C75.8138 0 77.493 0.533333 78.5493 1.6C79.6055 2.64 80.1337 4.25333 80.1337 6.44V8.16C80.1337 11.0667 79.1586 12.9067 77.2086 13.68V13.76C78.292 14.08 79.0503 14.7333 79.4836 15.72C79.9441 16.7067 80.1743 18.0267 80.1743 19.68V24.6C80.1743 25.4 80.2014 26.0533 80.2555 26.56C80.3097 27.04 80.4451 27.52 80.6618 28H76.1117C75.9492 27.5467 75.8409 27.12 75.7867 26.72C75.7325 26.32 75.7054 25.6 75.7054 24.56V19.44C75.7054 18.16 75.4888 17.2667 75.0554 16.76C74.6492 16.2533 73.9315 16 72.9023 16H71.3585V28H66.8897V0ZM72.9835 12C73.8773 12 74.5408 11.7733 74.9742 11.32C75.4346 10.8667 75.6648 10.1067 75.6648 9.04V6.88C75.6648 5.86667 75.4752 5.13333 75.0961 4.68C74.744 4.22667 74.1752 4 73.3898 4H71.3585V12H72.9835Z" fill="#E5282B"/>
<path d="M83.2749 0H95.0969V4H87.7437V11.8H93.5125V15.8H87.7437V28H83.2749V0Z" fill="#E5282B"/>
<path d="M97.24 0H101.709V28H97.24V0Z" fill="#E5282B"/>
<path d="M105.056 0H111.678C113.98 0 115.659 0.533333 116.715 1.6C117.772 2.64 118.3 4.25333 118.3 6.44V8.16C118.3 11.0667 117.325 12.9067 115.375 13.68V13.76C116.458 14.08 117.216 14.7333 117.65 15.72C118.11 16.7067 118.34 18.0267 118.34 19.68V24.6C118.34 25.4 118.367 26.0533 118.422 26.56C118.476 27.04 118.611 27.52 118.828 28H114.278C114.115 27.5467 114.007 27.12 113.953 26.72C113.899 26.32 113.871 25.6 113.871 24.56V19.44C113.871 18.16 113.655 17.2667 113.221 16.76C112.815 16.2533 112.097 16 111.068 16H109.524V28H105.056V0ZM111.15 12C112.043 12 112.707 11.7733 113.14 11.32C113.601 10.8667 113.831 10.1067 113.831 9.04V6.88C113.831 5.86667 113.641 5.13333 113.262 4.68C112.91 4.22667 112.341 4 111.556 4H109.524V12H111.15Z" fill="#E5282B"/>
<path d="M121.441 0H127.819L130.663 20.04H130.744L133.588 0H139.966V28H135.741V6.8H135.66L132.41 28H128.672L125.422 6.8H125.341V28H121.441V0Z" fill="#E5282B"/>
<path d="M146.754 0H152.807L157.439 28H152.97L152.157 22.44V22.52H147.079L146.267 28H142.123L146.754 0ZM151.629 18.72L149.639 4.88H149.557L147.607 18.72H151.629Z" fill="#E5282B"/>
<path d="M159.607 0H171.795V4H164.076V11.4H170.21V15.4H164.076V24H171.795V28H159.607V0Z" fill="#E5282B"/>
<path d="M177.859 4H173.187V0H187V4H182.328V28H177.859V4Z" fill="#E5282B"/>
</svg>
