<svg width="50" height="50" viewBox="0 0 50 50" fill="none"
    xmlns="http://www.w3.org/2000/svg">
    <g clip-path="url(#clip0_122_639)">
        <path d="M25 50C11.1924 50 0 38.8076 0 25C0 11.1924 11.1924 0 25 0C38.8076 0 50 11.1924 50 25C50 38.8076 38.8076 50 25 50ZM25 48.6842C38.0804 48.6842 48.6842 38.0804 48.6842 25C48.6842 11.9196 38.0804 1.31579 25 1.31579C11.9196 1.31579 1.31579 11.9196 1.31579 25C1.31579 38.0804 11.9196 48.6842 25 48.6842Z" fill="#E5292B"/>
        <path d="M27.05 19C28.0267 19.1906 28.9244 19.6683 29.6281 20.3719C30.3317 21.0756 30.8094 21.9733 31 22.95M27.05 15C29.0793 15.2254 30.9716 16.1342 32.4162 17.577C33.8609 19.0198 34.772 20.911 35 22.94M34 30.92V33.92C34.0011 34.1985 33.9441 34.4742 33.8325 34.7293C33.7209 34.9845 33.5573 35.2136 33.3521 35.4019C33.1469 35.5901 32.9046 35.7335 32.6407 35.8227C32.3769 35.9119 32.0974 35.9451 31.82 35.92C28.7428 35.5856 25.787 34.5341 23.19 32.85C20.7738 31.3147 18.7253 29.2662 17.19 26.85C15.5 24.2412 14.4482 21.271 14.12 18.18C14.095 17.9035 14.1279 17.6248 14.2165 17.3616C14.3051 17.0985 14.4476 16.8567 14.6348 16.6516C14.822 16.4466 15.0498 16.2827 15.3038 16.1705C15.5578 16.0583 15.8323 16.0003 16.11 16H19.11C19.5953 15.9952 20.0658 16.1671 20.4338 16.4835C20.8017 16.8 21.0421 17.2394 21.11 17.72C21.2366 18.6801 21.4714 19.6227 21.81 20.53C21.9445 20.8879 21.9737 21.2769 21.8939 21.6509C21.8142 22.0248 21.6289 22.3681 21.36 22.64L20.09 23.91C21.5136 26.4135 23.5865 28.4864 26.09 29.91L27.36 28.64C27.6319 28.3711 27.9752 28.1858 28.3491 28.1061C28.7231 28.0263 29.1121 28.0555 29.47 28.19C30.3773 28.5286 31.3199 28.7634 32.28 28.89C32.7658 28.9585 33.2094 29.2032 33.5265 29.5775C33.8437 29.9518 34.0122 30.4296 34 30.92Z" stroke="#E5292B" stroke-linecap="round" stroke-linejoin="round"/>
    </g>
    <defs>
        <clipPath id="clip0_122_639">
            <rect width="50" height="50" fill="white"/>
        </clipPath>
    </defs>
</svg>
