<svg width="114" height="114" viewBox="0 0 114 114" fill="none" xmlns="http://www.w3.org/2000/svg">
<path d="M56.9971 0C25.5146 0 0 25.5203 0 56.9971C0 81.1425 15.0224 101.785 36.2294 110.092C35.7273 105.584 35.2823 98.6467 36.4234 93.7286C37.4618 89.2784 43.1102 65.3955 43.1102 65.3955C43.1102 65.3955 41.4042 61.978 41.4042 56.9287C41.4042 49.0095 45.9971 43.093 51.7196 43.093C56.5864 43.093 58.9313 46.7445 58.9313 51.1206C58.9313 56.0158 55.8161 63.3244 54.2129 70.1025C52.8721 75.7737 57.0599 80.4008 62.6512 80.4008C72.7783 80.4008 80.5719 69.7202 80.5719 54.2985C80.5719 40.6511 70.7643 31.1116 56.7632 31.1116C40.5427 31.1116 31.0204 43.2756 31.0204 55.8446C31.0204 60.7399 32.9089 65.9946 35.2652 68.853C35.4654 69.0683 35.6068 69.3315 35.6758 69.6173C35.7447 69.9031 35.7389 70.2018 35.6589 70.4847C35.2253 72.2819 34.261 76.1559 34.0785 76.949C33.8274 77.9931 33.2512 78.2156 32.1672 77.7135C25.0525 74.3987 20.6023 63.992 20.6023 55.6278C20.6023 37.6501 33.662 21.1386 58.2637 21.1386C78.0387 21.1386 93.4034 35.2253 93.4034 54.0588C93.4034 73.7083 81.017 89.5066 63.8265 89.5066C58.0469 89.5066 52.6211 86.5113 50.7611 82.9682L47.2066 96.5129C45.9229 101.465 42.4483 107.673 40.1262 111.461C45.5927 113.149 51.2818 114.005 57.0029 114C88.4797 114 114 88.4796 114 57.0028C114 25.526 88.4739 0 56.9971 0Z" fill="white"/>
</svg>
