<svg width="32" height="32" viewBox="0 0 32 32" fill="none" xmlns="http://www.w3.org/2000/svg">
<circle cx="16" cy="16" r="16" fill="white"/>
<path d="M9.00007 12.8155C9.00007 11.9941 9.14738 11.218 9.43768 10.4937C9.71503 9.79018 10.1271 9.1445 10.6519 8.59106C11.1757 8.04488 11.775 7.57258 12.4327 7.18783C13.1074 6.78994 13.8379 6.48976 14.6012 6.2967C15.3738 6.09896 16.1692 5.99924 16.968 6C18.2017 6 19.3499 6.25446 20.4147 6.76127C21.4655 7.25884 22.36 8.02242 23.0046 8.97222C23.6696 9.93832 24 11.0311 24 12.2496C24 12.9802 23.9263 13.695 23.7758 14.394C23.6279 15.0926 23.3929 15.7709 23.076 16.4138C22.774 17.0362 22.379 17.6116 21.904 18.1211C21.4267 18.6226 20.8485 19.023 20.2056 19.2974C19.5076 19.5955 18.7525 19.7456 17.9905 19.7377C17.4608 19.7377 16.9322 19.6162 16.4101 19.3723C15.888 19.1295 15.5133 18.7958 15.288 18.3682C15.2089 18.6649 15.1006 19.0936 14.9565 19.6542C14.8179 20.2138 14.7247 20.5749 14.6835 20.7386C14.6402 20.9012 14.5601 21.1725 14.4431 21.5484C14.3637 21.8265 14.262 22.098 14.1387 22.3604L13.7661 23.072C13.6049 23.3774 13.4248 23.6729 13.2267 23.9568C13.0306 24.2335 12.788 24.5639 12.4988 24.944L12.3374 25L12.2301 24.886C12.1142 23.6897 12.0546 22.9738 12.0546 22.7373C12.0546 22.0373 12.1402 21.2517 12.3092 20.3796C12.4749 19.5085 12.7371 18.4136 13.0891 17.097C13.4411 15.7814 13.6426 15.0074 13.6968 14.7783C13.4487 14.2852 13.3231 13.6412 13.3231 12.8493C13.3231 12.2168 13.5256 11.6245 13.9318 11.067C14.3391 10.5116 14.8536 10.234 15.4775 10.234C15.9552 10.234 16.3256 10.3881 16.591 10.6975C16.8575 11.0058 16.9875 11.3943 16.9875 11.8684C16.9875 12.371 16.8163 13.0985 16.4719 14.0498C16.1274 15.0022 15.9563 15.7128 15.9563 16.1847C15.9563 16.663 16.1318 17.0632 16.4827 17.3768C16.829 17.6905 17.2871 17.8605 17.7598 17.8508C18.1887 17.8508 18.5862 17.7558 18.9556 17.5647C19.3192 17.3792 19.6339 17.1143 19.8752 16.7908C20.4008 16.0879 20.7755 15.2889 20.9768 14.4415C21.0808 13.9959 21.161 13.5726 21.2108 13.1745C21.2639 12.7743 21.2866 12.3963 21.2866 12.0373C21.2866 10.7207 20.8577 9.69442 20.0052 8.95955C19.1484 8.22468 18.0327 7.85935 16.6603 7.85935C15.0995 7.85935 13.7942 8.35138 12.749 9.3386C11.7026 10.3226 11.1762 11.5738 11.1762 13.0911C11.1762 13.4258 11.2282 13.7489 11.3267 14.0614C11.4232 14.3729 11.5282 14.621 11.642 14.8047C11.7546 14.9853 11.8608 15.1616 11.9572 15.3242C12.0546 15.4868 12.1056 15.6029 12.1056 15.6726C12.1056 15.8859 12.0481 16.1636 11.9322 16.5068C11.812 16.8499 11.6701 17.021 11.499 17.021C11.4827 17.021 11.4156 17.0093 11.2986 16.9851C10.8934 16.8671 10.5275 16.6467 10.2381 16.3463C9.931 16.0348 9.6886 15.6684 9.52433 15.2672C9.36053 14.8674 9.23295 14.4544 9.14305 14.0329C9.04592 13.6341 8.99792 13.2254 9.00007 12.8155V12.8155Z" fill="black"/>
</svg>
